<mxfile host="app.diagrams.net" modified="2024-05-02T07:49:18.364Z" agent="Mozilla/5.0 (Windows NT 10.0; Win64; x64; rv:125.0) Gecko/20100101 Firefox/125.0" etag="KDW2i6YEPDHzCrCwv4Cc" version="24.3.1" type="github">
  <diagram name="Page-1" id="Fb-UzOqJc0-bCRPpKKv8">
    <mxGraphModel dx="607" dy="340" grid="1" gridSize="10" guides="1" tooltips="1" connect="1" arrows="1" fold="1" page="1" pageScale="1" pageWidth="850" pageHeight="1100" math="0" shadow="0">
      <root>
        <mxCell id="0" />
        <mxCell id="1" parent="0" />
        <mxCell id="5ehIhYxMIf45m_4cqmk0-7" value="" style="ellipse;whiteSpace=wrap;html=1;fillColor=none;" vertex="1" parent="1">
          <mxGeometry x="488.75" y="265" width="262.5" height="50" as="geometry" />
        </mxCell>
        <mxCell id="5ehIhYxMIf45m_4cqmk0-6" value="" style="ellipse;whiteSpace=wrap;html=1;fillColor=none;" vertex="1" parent="1">
          <mxGeometry x="515" y="270" width="210" height="40" as="geometry" />
        </mxCell>
        <mxCell id="5ehIhYxMIf45m_4cqmk0-1" value="" style="endArrow=none;html=1;rounded=0;dashed=1;" edge="1" parent="1" source="5ehIhYxMIf45m_4cqmk0-2">
          <mxGeometry width="50" height="50" relative="1" as="geometry">
            <mxPoint x="190" y="320" as="sourcePoint" />
            <mxPoint x="730" y="320" as="targetPoint" />
          </mxGeometry>
        </mxCell>
        <mxCell id="5ehIhYxMIf45m_4cqmk0-3" value="" style="endArrow=none;html=1;rounded=0;dashed=1;" edge="1" parent="1" target="5ehIhYxMIf45m_4cqmk0-2">
          <mxGeometry width="50" height="50" relative="1" as="geometry">
            <mxPoint x="190" y="320" as="sourcePoint" />
            <mxPoint x="730" y="320" as="targetPoint" />
          </mxGeometry>
        </mxCell>
        <mxCell id="5ehIhYxMIf45m_4cqmk0-2" value="" style="rounded=1;whiteSpace=wrap;html=1;" vertex="1" parent="1">
          <mxGeometry x="560" y="290" width="120" height="60" as="geometry" />
        </mxCell>
        <mxCell id="5ehIhYxMIf45m_4cqmk0-4" value="" style="curved=1;endArrow=classic;html=1;rounded=0;" edge="1" parent="1">
          <mxGeometry width="50" height="50" relative="1" as="geometry">
            <mxPoint x="180" y="300" as="sourcePoint" />
            <mxPoint x="620" y="250" as="targetPoint" />
            <Array as="points">
              <mxPoint x="230" y="300" />
              <mxPoint x="450" y="300" />
              <mxPoint x="510" y="250" />
            </Array>
          </mxGeometry>
        </mxCell>
        <mxCell id="5ehIhYxMIf45m_4cqmk0-8" value="" style="curved=1;endArrow=classic;html=1;rounded=0;" edge="1" parent="1">
          <mxGeometry width="50" height="50" relative="1" as="geometry">
            <mxPoint x="180" y="300" as="sourcePoint" />
            <mxPoint x="620" y="260" as="targetPoint" />
            <Array as="points">
              <mxPoint x="230" y="300" />
              <mxPoint x="450" y="300" />
              <mxPoint x="520" y="260" />
            </Array>
          </mxGeometry>
        </mxCell>
        <mxCell id="5ehIhYxMIf45m_4cqmk0-10" value="" style="curved=1;endArrow=classic;html=1;rounded=0;entryX=0.167;entryY=0.75;entryDx=0;entryDy=0;entryPerimeter=0;" edge="1" parent="1" target="5ehIhYxMIf45m_4cqmk0-6">
          <mxGeometry width="50" height="50" relative="1" as="geometry">
            <mxPoint x="180" y="300" as="sourcePoint" />
            <mxPoint x="620" y="260" as="targetPoint" />
            <Array as="points">
              <mxPoint x="230" y="300" />
              <mxPoint x="450" y="300" />
              <mxPoint x="520" y="290" />
            </Array>
          </mxGeometry>
        </mxCell>
      </root>
    </mxGraphModel>
  </diagram>
</mxfile>
